<svg xmlns="http://www.w3.org/2000/svg" version="1.1" xmlns:xlink="http://www.w3.org/1999/xlink" xmlns:svgjs="http://svgjs.dev/svgjs" width="2000" height="1500" viewBox="0 0 2000 1500"><rect width="2000" height="1500" fill="#162836"></rect><g transform="matrix(0.75,0,0,0.75,249.090909090909,282.7536437246963)"><svg viewBox="0 0 396 247" data-background-color="#162836" preserveAspectRatio="xMidYMid meet" height="1247" width="2000" xmlns="http://www.w3.org/2000/svg" xmlns:xlink="http://www.w3.org/1999/xlink"><g id="tight-bounds" transform="matrix(1,0,0,1,0.2400000000000091,-0.09999999999999432)"><svg viewBox="0 0 395.52 247.2" height="247.2" width="395.52"><g><svg></svg></g><g><svg viewBox="0 0 395.52 247.2" height="247.2" width="395.52"><g transform="matrix(1,0,0,1,75.54432,85.96456122590811)"><svg viewBox="0 0 244.43135999999998 75.27087754818375" height="75.27087754818375" width="244.43135999999998"><g><svg viewBox="0 0 346.2179813465467 106.61533478730097" height="75.27087754818375" width="244.43135999999998"><g transform="matrix(1,0,0,1,101.78662134654678,17.919739119476326)"><svg viewBox="0 0 244.43135999999996 70.77585654834832" height="70.77585654834832" width="244.43135999999996"><g id="textblocktransform"><svg viewBox="0 0 244.43135999999996 70.77585654834832" height="70.77585654834832" width="244.43135999999996" id="textblock"><g><svg viewBox="0 0 244.43135999999996 31.65181172211871" height="31.65181172211871" width="244.43135999999996"><g transform="matrix(1,0,0,1,0,0)"><svg width="244.43135999999996" viewBox="0.7 -29.6 375.66 48.650000000000006" height="31.65181172211871" data-palette-color="#cf7650"><path d="M32.25-26.4L32.25-26.4Q32.25-25.3 31.35-23.85L31.35-23.85Q30.6-22.5 29.68-22 28.75-21.5 28.75-22.1L28.75-22.1Q28.75-22.15 29.3-22.7L29.3-22.7Q30.95-24.25 30.95-25.25L30.95-25.25Q30.95-27.4 26.7-27.4L26.7-27.4Q24.9-27.4 21.95-26.73 19-26.05 16.25-24.55L16.25-24.55Q13.05-22.8 13.05-21.5L13.05-21.5Q13.05-20.45 15-19.5L15-19.5Q16.05-19 19.18-17.82 22.3-16.65 24.23-15.78 26.15-14.9 27.88-13.3 29.6-11.7 29.6-9.75 29.6-7.8 27.3-5.5L27.3-5.5Q23.8-2.15 18.2 0.08 12.6 2.3 8.6 2.3L8.6 2.3Q0.7 2.3 0.7-2.15 0.7-6.6 5.55-9.7L5.55-9.7Q9.55-12.45 13.95-12.45L13.95-12.45Q15-12.45 14.9-12.1L14.9-12.1Q14.8-11.75 13.4-11.73 12-11.7 9.8-10.78 7.6-9.85 5.7-8.1L5.7-8.1Q3.2-5.85 3.2-3.6L3.2-3.6Q3.2-2.2 4.55-1.1 5.9 0 9.7 0 13.5 0 17.2-1.2L17.2-1.2Q25.2-3.85 27.2-7L27.2-7Q28-8.15 28-8.95L28-8.95Q28-11.25 25.2-12.55L25.2-12.55Q21.95-14.05 16.1-16L16.1-16Q13.85-16.75 12.28-17.98 10.7-19.2 10.7-20.93 10.7-22.65 12.58-24.33 14.45-26 17.1-27L17.1-27Q22.8-29.15 26.75-29.15L26.75-29.15Q32.25-29.15 32.25-26.4ZM48.75-29.25L48.75-29.25Q49.65-29.6 50.3-29.6L50.3-29.6Q52.5-29.6 53.2-28.4L53.2-28.4Q53.6-27.8 53.6-27.35L53.6-27.35Q53.6-23.95 47.9-18.8L47.9-18.8Q42.85-14.35 38.6-11.15L38.6-11.15Q37.2-8 35.7-3.4L35.7-3.4Q37.5-5.6 40.25-8.5L40.25-8.5Q45.8-14.25 48-14.25L48-14.25Q49.1-14.25 49.15-13.15L49.15-13.15Q49.25-12 48.67-10.95 48.1-9.9 47.6-9L47.6-9Q45.25-5.1 45.25-2.05L45.25-2.05Q45.25-1.05 45.65-0.6L45.65-0.6Q46.35 0.2 47.65-0.5 48.95-1.2 51.27-3.3 53.6-5.4 55.05-7.4L55.05-7.4Q55.3-7.65 55.52-7.53 55.75-7.4 55.75-7.28 55.75-7.15 55.65-7L55.65-7Q54.9-5.65 52.95-3.58 51-1.5 49.8-0.6L49.8-0.6Q47.5 1.15 45.4 1.15L45.4 1.15Q43.5 1.15 42.85-0.75L42.85-0.75Q42.7-1.2 42.7-1.83 42.7-2.45 42.8-3.15L42.8-3.15Q43.05-5.25 45.45-9.7L45.45-9.7Q45.95-10.6 45.95-10.98 45.95-11.35 45.55-11.35L45.55-11.35Q44.75-11.35 42.45-9.35L42.45-9.35Q40.9-7.9 37.87-3.88 34.85 0.15 34.45 0.4L34.45 0.4Q32.65 1.3 32.22 1.3 31.8 1.3 31.75 1.18 31.7 1.05 31.8 0.85 31.9 0.65 32.6-1.35L32.6-1.35Q34.95-8 35.8-10.15L35.8-10.15Q34.15-8.05 31.7-5.4L31.7-5.4Q31.3-5 31.3-5.58 31.3-6.15 31.75-6.75 32.2-7.35 33.62-9.08 35.05-10.8 35.65-11.65L35.65-11.65Q35.2-11.9 35.17-12.35 35.15-12.8 35.47-12.98 35.8-13.15 36.55-12.85L36.55-12.85Q37.05-13.55 37.45-14.4L37.45-14.4Q43.4-27.2 48.75-29.25ZM51.55-25.5L51.55-25.5Q52.2-26.7 52.2-27.53 52.2-28.35 51.47-28.35 50.75-28.35 49.55-27.45L49.55-27.45Q44.05-23.25 39.6-13.4L39.6-13.4Q42.85-15.5 46.4-19 49.95-22.5 51.55-25.5ZM61 1.25L61 1.25Q58.45 1.25 58.45-1.83 58.45-4.9 62.85-9.4L62.85-9.4Q63.2-9.75 63.35-9.95L63.35-9.95 63.7-10.45Q64.4-11.4 64.34-11.65L64.34-11.65 64.2-12.1Q64-12.7 62.55-12.98 61.1-13.25 60.2-13.25L60.2-13.25Q55.7-6.9 55-6 54.3-5.1 54.05-5.25 53.8-5.4 53.8-5.6 53.8-5.8 54.1-6.2L54.1-6.2Q56.8-9.5 58.75-13.25L58.75-13.25Q58.15-13.35 57.85-13.68 57.55-14 57.8-14.78 58.05-15.55 59.32-16.85 60.6-18.15 61.55-18.6 62.5-19.05 62.75-19.15 63-19.25 63.3-19.25L63.3-19.25Q63.9-19.25 62.9-17.45L62.9-17.45 60.95-14.35Q63.2-14.2 64.8-14.2L64.8-14.2 66.55-14.25Q67.4-14.25 67.8-14.03 68.2-13.8 68-13.25L68-13.25Q67.65-12.3 66.25-10.7L66.25-10.7Q63.25-7.2 61.75-3.25L61.75-3.25Q61.4-2.3 61.4-1.6L61.4-1.6Q61.4-0.15 62.45-0.15L62.45-0.15Q62.8-0.15 63.77-0.7 64.75-1.25 67.05-3.33 69.34-5.4 70.75-7.4L70.75-7.4Q70.95-7.65 71.22-7.53 71.5-7.4 71.5-7.28 71.5-7.15 71.4-7L71.4-7Q70.65-5.65 68.7-3.55 66.75-1.45 64.9-0.15L64.9-0.15Q63.1 1.25 61 1.25ZM93.64-7Q92.89-5.65 90.94-3.55 88.99-1.45 87.44-0.3L87.44-0.3Q85.44 1.15 83.09 1.15L83.09 1.15Q82.64 1.15 81.92 0.73 81.19 0.3 80.94-0.5 80.69-1.3 80.69-2.05L80.69-2.05Q80.69-4.65 81.69-7.2L81.69-7.2Q81.54-7.1 80.32-5.08 79.09-3.05 77.32-1.25 75.54 0.55 73.74 0.55L73.74 0.55Q72.89 0.55 71.79 0.1L71.79 0.1Q69.79-0.8 69.79-3.2L69.79-3.2Q69.79-6.15 71.82-9.28 73.84-12.4 74.39-12.6L74.39-12.6Q75.14-12.8 75.82-12.8 76.49-12.8 77.19-12.53 77.89-12.25 76.99-11.6L76.99-11.6Q73.54-8.45 72.09-4.6L72.09-4.6Q71.54-3.1 71.54-2.08 71.54-1.05 72.07-0.75 72.59-0.45 73.09-0.45L73.09-0.45Q74.29-0.45 76.37-2.13 78.44-3.8 82.09-9.1L82.09-9.1Q82.59-9.85 83.84-12.03 85.09-14.2 85.34-14.6L85.34-14.6Q86.14-14.6 87.22-14.23 88.29-13.85 87.94-13.25L87.94-13.25Q85.54-9.25 84.57-7.35 83.59-5.45 83.24-2.9L83.24-2.9Q83.19-2.45 83.19-1.75 83.19-1.05 83.59-0.6L83.59-0.6Q84.34 0.2 85.67-0.53 86.99-1.25 89.29-3.33 91.59-5.4 92.99-7.4L92.99-7.4Q93.19-7.65 93.47-7.53 93.74-7.4 93.74-7.28 93.74-7.15 93.64-7L93.64-7ZM99.74-13.95L100.39-14Q104.24-14.35 105.07-14.35 105.89-14.35 105.89-14.1L105.89-14.1Q105.89-13.8 104.72-13.48 103.54-13.15 98.99-12.65L98.99-12.65Q98.74-12.2 98.39-11.6L98.39-11.6Q97.64-10.4 97.59-10.15L97.59-10.15Q94.74-4.45 94.59-2.9L94.59-2.9Q94.54-2.45 94.54-1.75 94.54-1.05 94.94-0.6L94.94-0.6Q95.64 0.2 96.94-0.5 98.24-1.2 100.57-3.3 102.89-5.4 104.34-7.4L104.34-7.4Q104.54-7.65 104.84-7.5L104.84-7.5Q105.59-7.15 102.24-3.55L102.24-3.55Q99.04-0.1 96.89 0.7L96.89 0.7Q95.64 1.15 94.79 1.15L94.79 1.15Q92.79 1.15 92.14-0.75L92.14-0.75Q92.04-1.1 92.04-1.6L92.04-1.6Q92.04-3.35 93.64-6.9L93.64-6.9Q93.39-6.35 91.69-4.4L91.69-4.4Q91.24-3.9 90.99-4.4L90.99-4.4Q90.94-4.5 90.94-4.67 90.94-4.85 91.14-5.1L91.14-5.1Q93.59-8.15 94.99-10.25L94.99-10.25Q94.99-10.3 96.09-12.35L96.09-12.35Q95.59-12.25 95.07-12.25 94.54-12.25 94.29-12.58 94.04-12.9 94.24-13.35L94.24-13.35Q94.59-14.15 96.89-14.25L96.89-14.25Q96.94-14.35 97.09-14.35L97.09-14.35 99.59-19Q99.79-19.4 100.04-19.83 100.29-20.25 100.42-20.48 100.54-20.7 100.69-20.95 100.84-21.2 100.94-21.3 101.04-21.4 101.14-21.5L101.14-21.5Q101.34-21.8 102.32-21.8 103.29-21.8 103.64-21.25L103.64-21.25Q103.79-21.05 103.79-20.58 103.79-20.1 103.44-19.53 103.09-18.95 102.69-18.7 102.29-18.45 102.14-18.15L102.14-18.15 99.74-13.95ZM108.49-13.85L108.49-13.85Q109.74-13.85 109.99-13.05L109.99-13.05Q110.09-12.6 109.86-12.18 109.64-11.75 109.54-11.5 109.44-11.25 109.39-11.1L109.39-11.1Q109.14-10.6 108.89-10.15L108.89-10.15Q106.04-4.45 105.89-2.9L105.89-2.9Q105.84-2.45 105.84-1.75 105.84-1.05 106.24-0.6L106.24-0.6Q106.94 0.2 108.24-0.5 109.54-1.2 111.86-3.3 114.19-5.4 115.64-7.4L115.64-7.4Q115.84-7.65 116.09-7.53 116.34-7.4 116.34-7.28 116.34-7.15 116.24-7L116.24-7Q115.49-5.65 113.54-3.55L113.54-3.55Q110.34-0.1 108.19 0.7L108.19 0.7Q106.94 1.15 106.09 1.15L106.09 1.15Q104.09 1.15 103.44-0.75L103.44-0.75Q103.34-1.1 103.34-1.6L103.34-1.6Q103.34-3.35 104.94-6.9L104.94-6.9Q104.69-6.35 102.99-4.4L102.99-4.4Q102.54-3.9 102.29-4.4L102.29-4.4Q102.24-4.5 102.24-4.67 102.24-4.85 102.44-5.1L102.44-5.1Q104.89-8.15 106.29-10.25L106.29-10.25Q106.19-10.5 106.39-10.9L106.39-10.9Q107.39-13.7 108.14-13.85L108.14-13.85Q108.29-13.85 108.49-13.85ZM112.44-20.5L112.44-20.5 112.04-18.9Q112.04-18.45 111.39-17.45 110.74-16.45 110.39-16.45L110.39-16.45Q108.24-16.45 108.24-17.5L108.24-17.5Q108.24-17.7 110.39-19.35L110.39-19.35 111.24-20Q112.04-20.7 112.24-20.7 112.44-20.7 112.44-20.5ZM156.18-26.4L156.18-26.4Q156.18-25.3 155.28-23.85L155.28-23.85Q154.53-22.5 153.61-22 152.68-21.5 152.68-22.1L152.68-22.1Q152.68-22.15 153.23-22.7L153.23-22.7Q154.88-24.25 154.88-25.25L154.88-25.25Q154.88-27.4 150.63-27.4L150.63-27.4Q148.83-27.4 145.88-26.73 142.93-26.05 140.18-24.55L140.18-24.55Q136.98-22.8 136.98-21.5L136.98-21.5Q136.98-20.45 138.93-19.5L138.93-19.5Q139.98-19 143.11-17.82 146.23-16.65 148.16-15.78 150.08-14.9 151.81-13.3 153.53-11.7 153.53-9.75 153.53-7.8 151.23-5.5L151.23-5.5Q147.73-2.15 142.13 0.08 136.53 2.3 132.53 2.3L132.53 2.3Q124.63 2.3 124.63-2.15 124.63-6.6 129.48-9.7L129.48-9.7Q133.48-12.45 137.88-12.45L137.88-12.45Q138.93-12.45 138.83-12.1L138.83-12.1Q138.73-11.75 137.33-11.73 135.93-11.7 133.73-10.78 131.53-9.85 129.63-8.1L129.63-8.1Q127.13-5.85 127.13-3.6L127.13-3.6Q127.13-2.2 128.48-1.1 129.83 0 133.63 0 137.43 0 141.13-1.2L141.13-1.2Q149.13-3.85 151.13-7L151.13-7Q151.93-8.15 151.93-8.95L151.93-8.95Q151.93-11.25 149.13-12.55L149.13-12.55Q145.88-14.05 140.03-16L140.03-16Q137.78-16.75 136.21-17.98 134.63-19.2 134.63-20.93 134.63-22.65 136.51-24.33 138.38-26 141.03-27L141.03-27Q146.73-29.15 150.68-29.15L150.68-29.15Q156.18-29.15 156.18-26.4ZM160.33-13.85L160.33-13.85Q161.58-13.85 161.83-13.05L161.83-13.05Q161.93-12.6 161.71-12.18 161.48-11.75 161.38-11.5 161.28-11.25 161.23-11.1L161.23-11.1Q160.98-10.6 160.73-10.15L160.73-10.15Q157.88-4.45 157.73-2.9L157.73-2.9Q157.68-2.45 157.68-1.75 157.68-1.05 158.08-0.6L158.08-0.6Q158.78 0.2 160.08-0.5 161.38-1.2 163.71-3.3 166.03-5.4 167.48-7.4L167.48-7.4Q167.68-7.65 167.93-7.53 168.18-7.4 168.18-7.28 168.18-7.15 168.08-7L168.08-7Q167.33-5.65 165.38-3.55L165.38-3.55Q162.18-0.1 160.03 0.7L160.03 0.7Q158.78 1.15 157.93 1.15L157.93 1.15Q155.93 1.15 155.28-0.75L155.28-0.75Q155.18-1.1 155.18-1.6L155.18-1.6Q155.18-3.35 156.78-6.9L156.78-6.9Q156.53-6.35 154.83-4.4L154.83-4.4Q154.38-3.9 154.13-4.4L154.13-4.4Q154.08-4.5 154.08-4.67 154.08-4.85 154.28-5.1L154.28-5.1Q156.73-8.15 158.13-10.25L158.13-10.25Q158.03-10.5 158.23-10.9L158.23-10.9Q159.23-13.7 159.98-13.85L159.98-13.85Q160.13-13.85 160.33-13.85ZM164.28-20.5L164.28-20.5 163.88-18.9Q163.88-18.45 163.23-17.45 162.58-16.45 162.23-16.45L162.23-16.45Q160.08-16.45 160.08-17.5L160.08-17.5Q160.08-17.7 162.23-19.35L162.23-19.35 163.08-20Q163.88-20.7 164.08-20.7 164.28-20.7 164.28-20.5ZM180.73-14.2L180.73-14.2Q181.88-14.2 181.88-12.98 181.88-11.75 180.73-9.6 179.58-7.45 179.03-6.1L179.03-6.1Q178.08-3.8 178.08-2.43 178.08-1.05 178.48-0.6L178.48-0.6Q179.23 0.2 180.53-0.53 181.83-1.25 184.15-3.33 186.48-5.4 187.88-7.4L187.88-7.4Q188.08-7.65 188.35-7.53 188.63-7.4 188.63-7.28 188.63-7.15 188.53-7L188.53-7Q187.78-5.65 185.83-3.55 183.88-1.45 182.08-0.18 180.28 1.1 178.53 1.1L178.53 1.1Q176.83 1.05 176.13 0.33 175.43-0.4 175.43-1.5 175.43-2.6 175.63-3.63 175.83-4.65 176.38-6L176.38-6Q177.28-8.15 177.95-9.35 178.63-10.55 178.63-10.93 178.63-11.3 178.23-11.3L178.23-11.3Q177.43-11.3 175.18-9.35L175.18-9.35Q173.63-7.9 170.6-3.88 167.58 0.15 167.18 0.4L167.18 0.4Q165.38 1.3 164.93 1.3 164.48 1.3 164.48 1.15 164.48 1 164.58 0.73 164.68 0.45 165.55-2 166.43-4.45 167.45-7.38 168.48-10.3 168.7-10.9 168.93-11.5 169-11.93 169.08-12.35 169.18-12.65 169.28-12.95 169.55-13.33 169.83-13.7 170.28-13.73 170.73-13.75 171.43-13.63 172.13-13.5 172.13-13L172.13-13Q172.13-12.65 171.58-11.48 171.03-10.3 168.43-3.4L168.43-3.4Q170.23-5.6 172.98-8.47 175.73-11.35 177.63-12.85L177.63-12.85Q179.53-14.2 180.73-14.2ZM185.93 19.05L185.93 19.05Q185.53 19.05 184.93 18.9L184.93 18.9Q182.38 18.25 182.38 16.23 182.38 14.2 185 11.15 187.63 8.1 196.08 2.5L196.08 2.5Q199.68-4.85 201.08-9.15L201.08-9.15Q198.28-5.75 197.08-4.45L197.08-4.45Q192.58 0.55 189.83 0.55L189.83 0.55Q189.03 0.55 188.1 0.08 187.18-0.4 186.53-1.28 185.88-2.15 185.88-3.15L185.88-3.15Q185.88-5.8 189.58-9.1L189.58-9.1Q191.78-11.1 194.18-12.5 196.58-13.9 197.98-14.25 199.38-14.6 200.68-14.6 201.98-14.6 202.98-13.9 203.98-13.2 203.98-12.5L203.98-12.5Q203.98-12.1 203.58-12.25L203.58-12.25Q203.03-13.2 201.15-13.2 199.28-13.2 196.9-11.98 194.53-10.75 192.63-9.08 190.73-7.4 189.4-5.28 188.08-3.15 188.08-2.15L188.08-2.15Q188.08-0.4 189.08-0.4L189.08-0.4Q190.48-0.4 193.38-2.7L193.38-2.7Q197.68-6.05 201.63-10.85L201.63-10.85Q202.28-11.8 204.33-10.8L204.33-10.8Q205.13-10.4 204.98-10.1L204.98-10.1Q204.33-8.65 202.6-5.08 200.88-1.5 200.03 0.3L200.03 0.3Q201.18-0.3 203.95-2.73 206.73-5.15 208.83-7.6L208.83-7.6Q209.93-8.9 209.93-8L209.93-8Q209.93-6.75 203.93-1.4L203.93-1.4Q200.48 1.7 199.03 2.5L199.03 2.5Q194.78 11.25 193.33 13.5L193.33 13.5Q189.58 19.05 185.93 19.05ZM195.13 4.4L195.13 4.4Q189.13 8.9 186.53 11.53 183.93 14.15 183.93 16.45L183.93 16.45Q183.93 17.15 184.38 17.45 184.83 17.75 185.33 17.75 185.83 17.75 186.78 17 187.73 16.25 188.4 15.53 189.08 14.8 189.58 14.18 190.08 13.55 190.7 12.58 191.33 11.6 191.68 11.05 192.03 10.5 192.65 9.33 193.28 8.15 193.5 7.73 193.73 7.3 194.35 6 194.98 4.7 195.13 4.4ZM225.22-29.25L225.22-29.25Q226.12-29.6 226.77-29.6L226.77-29.6Q228.97-29.6 229.67-28.4L229.67-28.4Q230.07-27.8 230.07-27.35L230.07-27.35Q230.07-23.95 224.37-18.8L224.37-18.8Q219.32-14.35 215.07-11.15L215.07-11.15Q213.67-8 212.17-3.4L212.17-3.4Q213.97-5.6 216.72-8.5L216.72-8.5Q222.27-14.25 224.47-14.25L224.47-14.25Q225.57-14.25 225.62-13.15L225.62-13.15Q225.72-12 225.15-10.95 224.57-9.9 224.07-9L224.07-9Q221.72-5.1 221.72-2.05L221.72-2.05Q221.72-1.05 222.12-0.6L222.12-0.6Q222.82 0.2 224.12-0.5 225.42-1.2 227.75-3.3 230.07-5.4 231.52-7.4L231.52-7.4Q231.77-7.65 232-7.53 232.22-7.4 232.22-7.28 232.22-7.15 232.12-7L232.12-7Q231.37-5.65 229.42-3.58 227.47-1.5 226.27-0.6L226.27-0.6Q223.97 1.15 221.87 1.15L221.87 1.15Q219.97 1.15 219.32-0.75L219.32-0.75Q219.17-1.2 219.17-1.83 219.17-2.45 219.27-3.15L219.27-3.15Q219.52-5.25 221.92-9.7L221.92-9.7Q222.42-10.6 222.42-10.98 222.42-11.35 222.02-11.35L222.02-11.35Q221.22-11.35 218.92-9.35L218.92-9.35Q217.37-7.9 214.35-3.88 211.32 0.15 210.92 0.4L210.92 0.4Q209.12 1.3 208.7 1.3 208.27 1.3 208.22 1.18 208.17 1.05 208.27 0.85 208.37 0.65 209.07-1.35L209.07-1.35Q211.42-8 212.27-10.15L212.27-10.15Q210.62-8.05 208.17-5.4L208.17-5.4Q207.77-5 207.77-5.58 207.77-6.15 208.22-6.75 208.67-7.35 210.1-9.08 211.52-10.8 212.12-11.65L212.12-11.65Q211.67-11.9 211.65-12.35 211.62-12.8 211.95-12.98 212.27-13.15 213.02-12.85L213.02-12.85Q213.52-13.55 213.92-14.4L213.92-14.4Q219.87-27.2 225.22-29.25ZM228.02-25.5L228.02-25.5Q228.67-26.7 228.67-27.53 228.67-28.35 227.95-28.35 227.22-28.35 226.02-27.45L226.02-27.45Q220.52-23.25 216.07-13.4L216.07-13.4Q219.32-15.5 222.87-19 226.42-22.5 228.02-25.5ZM240.67-16.95L240.67-16.95 240.57-17.75Q240.77-19.85 242.99-21.9 245.22-23.95 248.62-25.8 252.02-27.65 259.42-28.9L259.42-28.9Q263.62-29.55 266.44-29.55 269.27-29.55 271.42-29.08 273.57-28.6 274.97-27.2 276.37-25.8 276.37-23.88 276.37-21.95 274.74-20.25 273.12-18.55 270.67-17.65L270.67-17.65Q265.92-15.9 261.57-15.7L261.57-15.7Q263.72-14.4 265.12-13.43 266.52-12.45 268.12-10.85 269.72-9.25 270.17-8.1 270.62-6.95 270.62-6.05L270.62-6.05Q270.62-3.1 268.37-0.4L268.37-0.4Q266.87 1.45 264.19 2.55 261.52 3.65 258.52 3.65L258.52 3.65Q252.12 3.65 251.52-0.85L251.52-0.85Q251.42-0.95 251.42-1.15L251.42-1.15Q249.52 1.9 248.27 1.9L248.27 1.9Q247.92 1.9 247.14 1.73 246.37 1.55 246.34 1.35 246.32 1.15 246.32 0.5 246.32-0.15 247.27-2.63 248.22-5.1 249.42-7.5L249.42-7.5Q251.77-12 254.07-16.2L254.07-16.2Q254.47-17.1 254.47-17.55 254.47-18 254.42-18.25L254.42-18.25Q254.62-19.65 256.84-21.93 259.07-24.2 260.87-24.2L260.87-24.2Q261.47-24.2 262.47-23.75 263.47-23.3 263.67-22.5L263.67-22.5Q263.72-22.15 263.69-22.08 263.67-22 263.42-22.1 263.17-22.2 263.12-22.2L263.12-22.2Q261.52-22.2 259.29-19.83 257.07-17.45 255.02-14L255.02-14Q250.77-7 248.92-2.5L248.92-2.5Q248.52-1.5 248.52-0.95L248.52-0.95Q248.52-0.2 249.17-0.2 249.82-0.2 250.92-1.58 252.02-2.95 252.47-2.93 252.92-2.9 253.19-2.65 253.47-2.4 253.57-2.13 253.67-1.85 253.72-1.35 253.77-0.85 253.82-0.7L253.82-0.7Q254.62 2.85 258.87 2.85L258.87 2.85Q258.97 2.85 259.07 2.85L259.07 2.85Q262.52 2.85 264.97 1.25L264.97 1.25Q267.67-0.55 267.67-3.23 267.67-5.9 265.17-8.85L265.17-8.85Q264.37-9.75 262.82-11.1L262.82-11.1Q259.52-13.95 259.42-14.75 259.32-15.55 260.09-16.07 260.87-16.6 261.52-16.6L261.52-16.6Q263.97-16.6 268.22-18.35L268.22-18.35Q274.47-20.9 274.92-24L274.92-24Q274.92-24.2 274.92-24.3L274.92-24.3Q274.92-25.2 274.12-26L274.12-26Q272.77-27.45 268.42-27.45L268.42-27.45Q262.47-27.45 254.57-25.3L254.57-25.3Q249.77-24 246.12-21.6L246.12-21.6Q242.12-18.95 242.12-15.95L242.12-15.95Q242.12-15.3 242.52-14.68 242.92-14.05 243.44-13.78 243.97-13.5 244.82-13.18 245.67-12.85 246.04-12.68 246.42-12.5 246.29-12.25 246.17-12 245.57-12.1L245.57-12.1Q243.92-12.2 242.27-13.48 240.62-14.75 240.62-16.45L240.62-16.45Q240.62-16.7 240.67-16.95ZM277.02 0.55L277.02 0.55Q276.22 0.55 275.29 0.08 274.37-0.4 273.72-1.28 273.07-2.15 273.07-3.15 273.07-4.15 273.52-5.05L273.52-5.05Q274.52-7.15 276.74-9.13 278.97-11.1 281.37-12.5 283.77-13.9 285.17-14.25 286.57-14.6 287.89-14.6 289.22-14.6 290.17-13.93 291.12-13.25 291.12-12.5L291.12-12.5Q291.12-12.25 291.07-12.2 291.02-12.15 290.82-12.25L290.82-12.25Q290.22-13.2 288.34-13.2 286.47-13.2 284.09-11.98 281.72-10.75 279.62-8.9L279.62-8.9Q277.87-7.25 276.54-5.18 275.22-3.1 275.22-2.15L275.22-2.15Q275.22-0.3 276.27-0.3 277.32-0.3 279.47-2L279.47-2Q283.02-5 284.32-6.4L284.32-6.4Q288.92-11.35 289.27-11.35L289.27-11.35Q289.87-11.35 290.72-11 291.57-10.65 291.27-10.15L291.27-10.15Q288.72-6.55 288.27-2.9L288.27-2.9Q288.22-2.45 288.22-1.75 288.22-1.05 288.62-0.6L288.62-0.6Q289.37 0.2 290.67-0.5 291.97-1.2 294.29-3.3 296.62-5.4 298.02-7.4L298.02-7.4Q298.22-7.65 298.47-7.53 298.72-7.4 298.72-7.3L298.72-7.3Q298.72-6.55 296.34-4.03 293.97-1.5 292.72-0.6L292.72-0.6Q290.37 1.15 288.37 1.15L288.37 1.15Q286.47 1.15 285.82-0.75L285.82-0.75Q285.67-1.35 285.67-2.1L285.67-2.1Q285.67-4.35 286.62-6.85L286.62-6.85Q286.42-6.75 284.77-4.85 283.12-2.95 280.94-1.2 278.77 0.55 277.02 0.55ZM296.01 19.05L296.01 19.05Q295.61 19.05 295.01 18.9L295.01 18.9Q292.46 18.25 292.46 16.23 292.46 14.2 295.09 11.15 297.71 8.1 306.16 2.5L306.16 2.5Q309.76-4.85 311.16-9.15L311.16-9.15Q308.36-5.75 307.16-4.45L307.16-4.45Q302.66 0.55 299.91 0.55L299.91 0.55Q299.11 0.55 298.19 0.08 297.26-0.4 296.61-1.28 295.96-2.15 295.96-3.15L295.96-3.15Q295.96-5.8 299.66-9.1L299.66-9.1Q301.86-11.1 304.26-12.5 306.66-13.9 308.06-14.25 309.46-14.6 310.76-14.6 312.06-14.6 313.06-13.9 314.06-13.2 314.06-12.5L314.06-12.5Q314.06-12.1 313.66-12.25L313.66-12.25Q313.11-13.2 311.24-13.2 309.36-13.2 306.99-11.98 304.61-10.75 302.71-9.08 300.81-7.4 299.49-5.28 298.16-3.15 298.16-2.15L298.16-2.15Q298.16-0.4 299.16-0.4L299.16-0.4Q300.56-0.4 303.46-2.7L303.46-2.7Q307.76-6.05 311.71-10.85L311.71-10.85Q312.36-11.8 314.41-10.8L314.41-10.8Q315.21-10.4 315.06-10.1L315.06-10.1Q314.41-8.65 312.69-5.08 310.96-1.5 310.11 0.3L310.11 0.3Q311.26-0.3 314.04-2.73 316.81-5.15 318.91-7.6L318.91-7.6Q320.01-8.9 320.01-8L320.01-8Q320.01-6.75 314.01-1.4L314.01-1.4Q310.56 1.7 309.11 2.5L309.11 2.5Q304.86 11.25 303.41 13.5L303.41 13.5Q299.66 19.05 296.01 19.05ZM305.21 4.4L305.21 4.4Q299.21 8.9 296.61 11.53 294.01 14.15 294.01 16.45L294.01 16.45Q294.01 17.15 294.46 17.45 294.91 17.75 295.41 17.75 295.91 17.75 296.86 17 297.81 16.25 298.49 15.53 299.16 14.8 299.66 14.18 300.16 13.55 300.79 12.58 301.41 11.6 301.76 11.05 302.11 10.5 302.74 9.33 303.36 8.15 303.59 7.73 303.81 7.3 304.44 6 305.06 4.7 305.21 4.4ZM335.31-29.25L335.31-29.25Q336.21-29.6 336.86-29.6L336.86-29.6Q339.06-29.6 339.76-28.4L339.76-28.4Q340.16-27.8 340.16-27.35L340.16-27.35Q340.16-23.95 334.46-18.8L334.46-18.8Q329.41-14.35 325.16-11.15L325.16-11.15Q323.76-8 322.26-3.4L322.26-3.4Q324.06-5.6 326.81-8.5L326.81-8.5Q332.36-14.25 334.56-14.25L334.56-14.25Q335.66-14.25 335.71-13.15L335.71-13.15Q335.81-12 335.24-10.95 334.66-9.9 334.16-9L334.16-9Q331.81-5.1 331.81-2.05L331.81-2.05Q331.81-1.05 332.21-0.6L332.21-0.6Q332.91 0.2 334.21-0.5 335.51-1.2 337.84-3.3 340.16-5.4 341.61-7.4L341.61-7.4Q341.86-7.65 342.09-7.53 342.31-7.4 342.31-7.28 342.31-7.15 342.21-7L342.21-7Q341.46-5.65 339.51-3.58 337.56-1.5 336.36-0.6L336.36-0.6Q334.06 1.15 331.96 1.15L331.96 1.15Q330.06 1.15 329.41-0.75L329.41-0.75Q329.26-1.2 329.26-1.83 329.26-2.45 329.36-3.15L329.36-3.15Q329.61-5.25 332.01-9.7L332.01-9.7Q332.51-10.6 332.51-10.98 332.51-11.35 332.11-11.35L332.11-11.35Q331.31-11.35 329.01-9.35L329.01-9.35Q327.46-7.9 324.44-3.88 321.41 0.15 321.01 0.4L321.01 0.4Q319.21 1.3 318.79 1.3 318.36 1.3 318.31 1.18 318.26 1.05 318.36 0.85 318.46 0.65 319.16-1.35L319.16-1.35Q321.51-8 322.36-10.15L322.36-10.15Q320.71-8.05 318.26-5.4L318.26-5.4Q317.86-5 317.86-5.58 317.86-6.15 318.31-6.75 318.76-7.35 320.19-9.08 321.61-10.8 322.21-11.65L322.21-11.65Q321.76-11.9 321.74-12.35 321.71-12.8 322.04-12.98 322.36-13.15 323.11-12.85L323.11-12.85Q323.61-13.55 324.01-14.4L324.01-14.4Q329.96-27.2 335.31-29.25ZM338.11-25.5L338.11-25.5Q338.76-26.7 338.76-27.53 338.76-28.35 338.04-28.35 337.31-28.35 336.11-27.45L336.11-27.45Q330.61-23.25 326.16-13.4L326.16-13.4Q329.41-15.5 332.96-19 336.51-22.5 338.11-25.5ZM352.51-14.55L352.51-14.55Q355.21-14.55 355.21-11.95L355.21-11.95Q355.21-10.6 354.46-9.75L354.46-9.75Q353.21-7.9 350.41-6.53 347.61-5.15 345.66-5L345.66-5Q344.96-4.95 344.91-5.4L344.91-5.4Q344.86-5.6 345.03-5.65 345.21-5.7 345.31-5.7L345.31-5.7Q346.46-5.8 348.26-6.8L348.26-6.8Q351.61-8.6 353.16-10.5L353.16-10.5Q353.81-11.4 353.81-12.23 353.81-13.05 353.01-13.05L353.01-13.05Q352.36-13.05 351.26-12.5L351.26-12.5Q348.91-11.4 346.31-8.68 343.71-5.95 342.91-3.35L342.91-3.35Q342.66-2.55 342.66-1.78 342.66-1 343.31-0.3 343.96 0.4 345.31 0.4L345.31 0.4Q346.81 0.4 348.76-0.4L348.76-0.4Q354.41-2.7 357.46-7.35L357.46-7.35Q357.76-7.75 358.01-7.5L358.01-7.5Q358.21-7.4 358.21-7.25 358.21-7.1 358.06-6.9L358.06-6.9Q356.56-4.4 354.26-2.45L354.26-2.45Q349.81 1.35 345.61 1.35L345.61 1.35Q342.01 1.35 340.56-0.8L340.56-0.8Q340.01-1.65 340.01-2.85 340.01-4.05 340.66-5.7L340.66-5.7Q341.91-8.55 346.01-11.55 350.11-14.55 352.51-14.55ZM374.26-25.5L374.26-25.5Q374.86-26.6 374.86-27.2L374.86-27.2Q374.86-28.25 374.01-28.25L374.01-28.25Q373.31-28.25 372.26-27.45L372.26-27.45Q368.26-24.35 364.51-17.65L364.51-17.65Q361.51-12.25 360.11-8.4L360.11-8.4Q363.56-10.75 367.83-16.05 372.11-21.35 374.26-25.5ZM359.36-6.4L359.36-6.4Q358.76-4.7 358.71-4.13 358.66-3.55 358.66-2.58 358.66-1.6 359.16-0.8L359.16-0.8Q360.01 0.55 362.01-0.6L362.01-0.6Q363.51-1.4 365.81-3.53 368.11-5.65 369.36-7.4L369.36-7.4Q369.46-7.55 369.66-7.55L369.66-7.55Q370.11-7.55 369.91-6.9L369.91-6.9Q369.16-5.55 367.13-3.45 365.11-1.35 363.46-0.13 361.81 1.1 360.16 1.1L360.16 1.1Q356.36 1.1 356.36-2.6L356.36-2.6Q356.36-2.75 356.36-2.9L356.36-2.9Q356.56-6.4 359.91-13.48 363.26-20.55 365.96-24.15L365.96-24.15 367.51-26.1Q368.06-26.75 369.11-27.7L369.11-27.7Q371.11-29.6 373.23-29.6 375.36-29.6 376.11-28.3L376.11-28.3Q376.36-27.85 376.36-27 376.36-26.15 375.61-24.6L375.61-24.6Q370.46-15.65 359.36-6.4Z" opacity="1" transform="matrix(1,0,0,1,0,0)" fill="#cf7650" class="wordmark-text-0" data-fill-palette-color="primary" id="text-0"></path></svg></g></svg></g><g transform="matrix(1,0,0,1,0,39.12404482622961)"><svg viewBox="0 0 162.66848341601974 31.651811722118712" height="31.651811722118712" width="162.66848341601974"><g transform="matrix(1,0,0,1,0,0)"><svg width="162.66848341601974" viewBox="1.45 -49.5 377.61 79.75" height="31.651811722118712" data-palette-color="#cf7650"><path d="M10.45 0.6Q7.55 0.6 4.75-0.25 1.95-1.1 1.45-2.1L1.45-2.1Q1.7-3.3 1.9-5.38 2.1-7.45 2.1-8.55L2.1-8.55Q2.5-8.9 3.25-8.9L3.25-8.9Q3.25-6.05 3.88-4.45 4.5-2.85 5.95-2.13 7.4-1.4 10.05-1.4L10.05-1.4Q14.75-1.4 17.88-3.38 21-5.35 21-9L21-9Q21-10.9 19.9-12.78 18.8-14.65 16-17.25L16-17.25 14.65-18.5Q12.05-20.85 10.83-22.58 9.6-24.3 9.6-26.75L9.6-26.75Q9.6-29.15 10.83-31.13 12.05-33.1 14.33-34.23 16.6-35.35 19.55-35.35L19.55-35.35Q22.45-35.35 24.5-34.35 26.55-33.35 27.15-32L27.15-32Q27.15-30.5 26.7-28.55 26.25-26.6 26.15-26.25L26.15-26.25Q25.5-26.25 24.9-26.45L24.9-26.45 25.05-27.45Q25.15-28.35 25.15-28.9L25.15-28.9Q25.15-31.2 23.93-32.23 22.7-33.25 20.1-33.25L20.1-33.25Q16.45-33.25 14.28-31.6 12.1-29.95 12.1-27.3L12.1-27.3Q12.1-25.25 13.4-23.58 14.7-21.9 17.4-19.5L17.4-19.5 18.45-18.55Q21.65-15.65 22.83-13.85 24-12.05 24-9.7L24-9.7Q24-6.3 21.93-3.98 19.85-1.65 16.73-0.53 13.6 0.6 10.45 0.6L10.45 0.6ZM58.05-17.65Q58.55-17.5 58.55-16.65L58.55-16.65Q58.55-15.4 57.55-14.08 56.55-12.75 54.82-11.9 53.1-11.05 51.05-11.05L51.05-11.05Q48.3-11.05 46.2-12.55L46.2-12.55Q45.9-11.1 45.45-9.6L45.45-9.6Q45.3-9.05 44.8-7.08 44.3-5.1 44.1-3.55L44.1-3.55Q43.75-2.75 42.7-1.83 41.65-0.9 40.2-0.25 38.75 0.4 37.35 0.4L37.35 0.4Q35.8 0.4 34.35-0.4 32.9-1.2 31.97-2.55 31.05-3.9 31.05-5.55L31.05-5.55Q31.75-7.65 32.2-9.5 32.65-11.35 33.05-13.25L33.05-13.25 33.55-15.75Q33.8-16.9 34.9-18.03 36-19.15 37.57-19.88 39.15-20.6 40.75-20.6L40.75-20.6Q41.35-20.6 42.45-20.4L42.45-20.4Q42.6-21.55 42.97-22 43.35-22.45 44.2-22.45L44.2-22.45Q44.7-22.45 45.35-22.3L45.35-22.3Q45.1-20.9 45.1-19.9L45.1-19.9Q45.1-17 46.85-15 48.6-13 51.6-13L51.6-13Q53.85-13 55.47-14.2 57.1-15.4 58.05-17.65L58.05-17.65ZM41.9-4.4Q42.3-6.4 43.05-8.95L43.05-8.95Q44.05-12.3 44.35-14.35L44.35-14.35Q43.25-15.75 42.85-17.75L42.85-17.75Q42.85-17.95 42.77-18.07 42.7-18.2 42.45-18.25L42.45-18.25Q41.7-18.55 40.75-18.55L40.75-18.55Q38.9-18.55 37.55-17.55 36.2-16.55 35.85-15.15L35.85-15.15Q35.7-14.55 34.75-10.45L34.75-10.45Q34.3-8.05 33.65-5.7L33.65-5.7Q33.65-3.85 34.9-2.83 36.15-1.8 37.55-1.8L37.55-1.8Q38.75-1.8 40.12-2.65 41.5-3.5 41.9-4.4L41.9-4.4ZM82.95-46.8Q82.95-45.65 81.9-45.05L81.9-45.05Q80.9-45.9 79.5-46.35 78.09-46.8 76.65-46.8L76.65-46.8Q73.75-46.8 71.95-44.58 70.15-42.35 68.45-36.8 66.75-31.25 64.05-19.35L64.05-19.35 74.2-19.5Q74.3-19.35 74.3-19.05L74.3-19.05Q74.3-18.5 73.72-18.05 73.15-17.6 72.59-17.6L72.59-17.6 71.5-17.6Q65.95-17.5 63.6-17.4L63.6-17.4Q61.5-7.9 59.75-0.65L59.75-0.65Q59.55-0.05 59.42 0.5 59.3 1.05 59.2 1.5L59.2 1.5Q56.95 10.45 54.85 16.23 52.75 22 49.85 25.43 46.95 28.85 43.05 28.85L43.05 28.85Q39.9 28.85 37.97 26.83 36.05 24.8 35.25 22.38 34.45 19.95 34.45 18.7L34.45 18.7Q34.45 17.85 34.75 17.2 35.05 16.55 35.65 15.6L35.65 15.6Q36.25 14.8 36.5 14.3L36.5 14.3Q37.45 20.3 39.02 23.08 40.6 25.85 43.85 25.85L43.85 25.85Q46.5 25.85 48.5 23.85 50.5 21.85 52.25 17.32 54 12.8 55.9 4.9L55.9 4.9Q57.65-2.5 59.85-12.1L59.85-12.1 61.05-17.3Q57.35-17.2 55.67-16.9 54-16.6 53.17-15.83 52.35-15.05 51.7-13.3L51.7-13.3 51.05-13.5Q51.6-16.35 52.25-17.45 52.9-18.55 54.15-18.8L54.15-18.8Q55.95-19.2 61.5-19.35L61.5-19.35Q63.85-29.7 65.27-34.65 66.7-39.6 68.45-42.63 70.2-45.65 73.05-47.55L73.05-47.55Q76.05-49.5 78.9-49.5L78.9-49.5Q80.75-49.5 81.84-48.75 82.95-48 82.95-46.8L82.95-46.8ZM93.24-8.3Q93.49-7.95 93.49-7.45L93.49-7.45Q93.49-7.05 93.34-6.75 93.19-6.45 92.84-6L92.84-6Q91.54-4.45 89.22-2.93 86.89-1.4 84.34-0.45 81.79 0.5 79.89 0.5L79.89 0.5Q77.74 0.5 76.32-0.83 74.89-2.15 74.89-4.8L74.89-4.8Q74.89-8.15 77.29-17.4L77.29-17.4 71.99-17.2Q71.89-17.25 71.72-17.38 71.54-17.5 71.49-17.6L71.49-17.6Q71.64-17.85 72.04-18.6 72.44-19.35 72.74-19.65L72.74-19.65 77.89-19.6Q79.54-25.7 81.69-32.15L81.69-32.15Q82.59-32.85 83.99-33.68 85.39-34.5 85.69-34.5L85.69-34.5Q86.14-34.3 86.24-33.95L86.24-33.95Q85.34-33.6 84.84-33.02 84.34-32.45 83.84-31.15L83.84-31.15Q82.39-27.45 80.34-19.6L80.34-19.6 93.09-19.55 93.14-18.75Q93.14-18.35 92.99-18.2 92.84-18.05 92.29-18L92.29-18Q91.59-17.95 79.79-17.5L79.79-17.5Q77.49-8.1 77.49-4.95L77.49-4.95Q77.49-3.2 78.34-2.38 79.19-1.55 80.94-1.55L80.94-1.55Q86.04-1.55 93.24-8.3L93.24-8.3ZM128.04-19.25Q128.39-19.1 128.39-18.4L128.39-18.4Q128.39-16.3 126.04-14.93 123.69-13.55 120.59-13.55L120.59-13.55Q117.14-13.55 114.74-15.5L114.74-15.5Q115.39-13.65 115.39-11.2L115.39-11.2Q115.39-8.05 114.29-5.45 113.19-2.85 111.29-1.38 109.39 0.1 107.09 0.1L107.09 0.1Q104.94 0.1 103.72-1.05 102.49-2.2 101.89-3.7L101.89-3.7Q100.74-1.65 99.07-0.65 97.39 0.35 95.84 0.35L95.84 0.35Q94.19 0.35 92.97-0.65 91.74-1.65 91.12-2.85 90.49-4.05 90.49-4.6L90.49-4.6Q90.99-7.35 92.09-11.4 93.19-15.45 94.04-18.2L94.04-18.2Q94.44-19.4 94.94-20.08 95.44-20.75 96.49-20.75L96.49-20.75Q97.24-20.75 97.49-20.15L97.49-20.15Q96.19-17.7 94.84-12.93 93.49-8.15 93.04-4.9L93.04-4.9Q93.79-1.8 96.09-1.8L96.09-1.8Q97.69-1.8 99.32-3.28 100.94-4.75 101.84-8L101.84-8Q102.24-9.6 102.87-12.5 103.49-15.4 103.89-17.55L103.89-17.55Q105.14-17.55 105.62-17.2 106.09-16.85 106.09-16L106.09-16Q106.09-15.05 105.24-11.95L105.24-11.95Q104.49-9.15 104.34-8.3L104.34-8.3Q103.89-6.05 103.89-4.6L103.89-4.6Q104.14-3.75 105.04-2.75 105.94-1.75 107.34-1.75L107.34-1.75Q108.69-1.75 110.02-2.83 111.34-3.9 112.22-6.05 113.09-8.2 113.09-11.15L113.09-11.15Q113.09-13.5 112.62-15.03 112.14-16.55 111.34-18.1L111.34-18.1Q110.89-19 110.84-19.15L110.84-19.15Q111.04-19.65 111.52-20.15 111.99-20.65 112.24-20.65L112.24-20.65Q112.44-20.65 112.79-20.18 113.14-19.7 113.24-19.6L113.24-19.6Q114.54-17.8 116.12-16.57 117.69-15.35 120.39-15.35L120.39-15.35Q122.59-15.35 124.69-16.35 126.79-17.35 128.04-19.25L128.04-19.25ZM152.29-11.55Q152.94-11.55 152.94-10.25L152.94-10.25Q152.94-7.95 150.91-5.4 148.89-2.85 146.01-1.13 143.14 0.6 140.74 0.6L140.74 0.6Q138.79 0.6 137.74-0.6 136.69-1.8 136.49-3.7L136.49-3.7Q135.24-1.9 133.34-0.75 131.44 0.4 129.94 0.4L129.94 0.4Q128.64 0.4 127.36-0.48 126.09-1.35 125.29-2.63 124.49-3.9 124.44-5.05L124.44-5.05 126.89-15.15Q127.19-16.35 128.41-17.73 129.64-19.1 131.39-20 133.14-20.9 134.94-20.9L134.94-20.9Q137.24-20.9 138.99-19.35L138.99-19.35Q139.44-20.55 139.66-20.85 139.89-21.15 140.34-21.2L140.34-21.2 142.79-21.45 142.94-21.35Q141.94-20.55 141.49-18.85L141.49-18.85Q139.94-13.05 139.36-10.3 138.79-7.55 138.79-5.45L138.79-5.45Q138.79-3.35 139.34-2.38 139.89-1.4 141.19-1.4L141.19-1.4Q142.79-1.4 145.01-2.7 147.24-4 149.24-6.33 151.24-8.65 152.29-11.55L152.29-11.55ZM130.14-1.95Q130.99-1.95 132.21-2.55 133.44-3.15 134.51-4.28 135.59-5.4 135.99-6.85L135.99-6.85 136.94-10.95Q137.14-11.95 137.64-14.18 138.14-16.4 138.44-17.6L138.44-17.6Q137.04-19 135.04-19L135.04-19Q133.49-19 132.24-18.18 130.99-17.35 130.19-16.18 129.39-15 129.19-14.1L129.19-14.1 127.19-5.2Q127.29-3.95 128.19-2.95 129.09-1.95 130.14-1.95L130.14-1.95ZM172.69-17.85Q172.89-17.8 173.04-17.55 173.19-17.3 173.19-17L173.19-17Q173.19-15.95 172.21-14.98 171.24-14 169.66-13.4 168.09-12.8 166.49-12.8L166.49-12.8Q163.99-12.8 162.21-14.1 160.44-15.4 159.94-17.75L159.94-17.75Q157.69-17.5 155.81-14.9 153.94-12.3 153.19-9.25L153.19-9.25Q153.09-8.75 152.44-6.18 151.79-3.6 151.19-0.1L151.19-0.1Q151.14 0.05 151.06 0.13 150.99 0.2 150.74 0.2L150.74 0.2Q150.39 0.2 149.69-0.1 148.99-0.4 148.99-0.75L148.99-0.75Q148.99-1.45 149.24-2.6L149.24-2.6Q152.29-16.7 153.19-20.05L153.19-20.05Q153.29-20.5 153.41-20.65 153.54-20.8 153.84-20.8L153.84-20.8Q154.04-20.8 154.69-20.48 155.34-20.15 155.74-19.8L155.74-19.8 154.84-16.9 154.54-15.9Q155.69-17.7 157.19-18.8 158.69-19.9 160.39-19.9L160.39-19.9Q160.89-19.9 161.39-19.8 161.89-19.7 162.09-19.55L162.09-19.55Q162.09-17.1 163.36-15.93 164.64-14.75 166.94-14.75L166.94-14.75Q168.99-14.75 170.34-15.45 171.69-16.15 172.69-17.85L172.69-17.85ZM189.58-11.95Q190.48-11.8 190.48-10.95L190.48-10.95Q190.48-8.95 187.91-6.28 185.33-3.6 181.83-1.68 178.33 0.25 175.98 0.25L175.98 0.25Q173.73 0.25 172.08-0.93 170.43-2.1 169.56-3.55 168.68-5 168.68-5.7L168.68-5.7Q169.48-8.55 170.43-13.6L170.43-13.6 170.98-16.4Q171.18-17.4 172.43-18.48 173.68-19.55 175.23-20.28 176.78-21 177.73-21L177.73-21Q178.48-21 179.56-20.53 180.63-20.05 181.46-19.05 182.28-18.05 182.28-16.5L182.28-16.5Q182.28-14.7 181.08-13.1 179.88-11.5 177.53-10.5 175.18-9.5 171.88-9.5L171.88-9.5 171.18-6.15Q171.18-5.7 171.71-4.65 172.23-3.6 173.41-2.75 174.58-1.9 176.38-1.9L176.38-1.9Q178.78-1.9 181.43-3.48 184.08-5.05 186.28-7.4 188.48-9.75 189.58-11.95L189.58-11.95ZM177.33-18.95Q176.73-18.95 175.78-18.45 174.83-17.95 174.06-17.2 173.28-16.45 173.13-15.8L173.13-15.8Q172.63-13.55 172.23-11.25L172.23-11.25Q176.08-11.4 178.03-12.78 179.98-14.15 179.98-15.9L179.98-15.9Q179.98-17.15 179.08-18.05 178.18-18.95 177.33-18.95L177.33-18.95ZM231.53-35.15Q231.83-35.15 232.1-34.93 232.38-34.7 232.53-34.4L232.53-34.4Q232.43-34.2 231.83-32.88 231.23-31.55 231.13-30.7L231.13-30.7 230.63-30.75Q230.43-31.5 230.13-31.85 229.83-32.2 229.03-32.35L229.03-32.35Q227.58-32.65 223.18-32.88 218.78-33.1 216.13-33.1L216.13-33.1Q214.88-33.1 214.5-32.95 214.13-32.8 213.88-32.25L213.88-32.25Q212.28-27.95 209.93-19.75L209.93-19.75 215.43-19.75Q220.38-19.75 222.68-19.9 224.98-20.05 227.23-20.65L227.23-20.65 227.53-20.4Q227.33-20 227.18-19.43 227.03-18.85 226.93-18L226.93-18Q226.83-17.45 226.18-17.45L226.18-17.45 209.33-17.45Q206.83-8 206.83-4.7L206.83-4.7Q206.83-2.75 208.13-2.18 209.43-1.6 212.63-1.6L212.63-1.6Q225.13-1.6 229.83-6L229.83-6Q230.03-6 230.23-5.7L230.23-5.7Q229.83-5.25 229.58-3.88 229.33-2.5 229.28-2.2L229.28-2.2Q229.13-1.65 228.63-1.28 228.13-0.9 227.38-0.75L227.38-0.75Q223.73 0 220.63 0.33 217.53 0.65 214.23 0.65L214.23 0.65Q208.33 0.65 206.13-0.28 203.93-1.2 203.93-3.1L203.93-3.1Q203.93-4.45 204.7-8.03 205.48-11.6 206.88-17.45L206.88-17.45 205.63-17.45Q204.63-17.45 204.63-17.95L204.63-17.95Q204.63-18.35 205.18-19.05 205.73-19.75 206.18-19.75L206.18-19.75 207.48-19.75 207.78-20.95Q208.03-22 208.85-25.48 209.68-28.95 210-30.7 210.33-32.45 210.18-32.75L210.18-32.75Q210.03-33 209.63-33L209.63-33Q204.08-33 201.58-32.2L201.58-32.2 201.38-32.25Q201.33-32.95 201.63-34.08 201.93-35.2 202.18-35.45L202.18-35.45Q206.88-35.1 211.68-35.1L211.68-35.1 231.53-35.15ZM260.18-12.2Q260.68-12.2 260.9-11.78 261.13-11.35 261.13-10.8L261.13-10.8Q261.13-9 259.23-6.25 257.33-3.5 254.4-1.45 251.48 0.6 248.63 0.6L248.63 0.6Q246.83 0.6 245.85-0.3 244.88-1.2 244.88-3.05L244.88-3.05Q244.88-5.6 246.28-9.98 247.68-14.35 248.83-17.25L248.83-17.25Q248.63-17.55 248.43-17.55L248.43-17.55Q248.23-17.55 247.98-17.4L247.98-17.4Q247.08-16.85 245.03-14.95 242.98-13.05 241.03-10.95 239.08-8.85 238.38-7.55L238.38-7.55Q237.58-5.4 237.38-4.83 237.18-4.25 236.98-2.95L236.98-2.95 236.53-0.7Q236.48-0.55 236.43-0.33 236.38-0.1 236.3-0.05 236.23 0 236.08 0L236.08 0Q235.63 0 234.9-0.1 234.18-0.2 234.18-0.4L234.18-0.4Q234.18-1 234.53-2.35 234.88-3.7 235.23-4.8 235.58-5.9 235.78-6.5L235.78-6.5 236.23-7.9Q237.68-12.9 238.2-15.18 238.73-17.45 239.23-20.25L239.23-20.25Q239.28-20.75 239.93-20.75L239.93-20.75Q240.38-20.75 240.95-20.53 241.53-20.3 241.63-19.9L241.63-19.9Q241.43-19 240.9-16.85 240.38-14.7 239.63-12.1L239.63-12.1Q242.53-15.35 245.65-18 248.78-20.65 249.83-20.65L249.83-20.65Q250.33-20.65 251.03-20.15 251.73-19.65 251.88-19.2L251.88-19.2Q250.28-14.9 248.83-9.83 247.38-4.75 247.38-3.15L247.38-3.15Q247.38-1.4 249.38-1.4L249.38-1.4Q252.33-1.4 255.35-4.7 258.38-8 260.18-12.2L260.18-12.2ZM274.27-22.75Q274.87-22.15 275.47-21.75L275.47-21.75Q275.97-21.35 276.15-21.13 276.32-20.9 276.32-20.5L276.32-20.5Q276.32-20.1 276.12-19.5L276.12-19.5Q275.12-15.65 273.47-8.45L273.47-8.45Q272.37-3.55 271.47-0.05L271.47-0.05Q268.87 10.5 266.15 16.95 263.42 23.4 259.35 26.83 255.27 30.25 249.17 30.25L249.17 30.25Q245.17 30.25 242.42 28.88 239.67 27.5 238.37 25.4 237.07 23.3 237.07 21.1L237.07 21.1Q237.07 20.6 237.17 20.28 237.27 19.95 237.67 19.3L237.67 19.3Q240.62 27.35 249.27 27.35L249.27 27.35Q254.67 27.35 258.27 24.18 261.87 21 264.32 15.23 266.77 9.45 269.17 0L269.17 0 269.42-1Q269.52-1.4 269.62-1.75 269.72-2.1 269.77-2.45L269.77-2.45Q268.37-1.1 266.52-0.35 264.67 0.4 263.42 0.4L263.42 0.4Q262.12 0.4 260.9-0.45 259.67-1.3 258.92-2.58 258.17-3.85 258.17-5.05L258.17-5.05Q258.47-6.25 258.87-8.1 259.27-9.95 259.47-10.95L259.47-10.95 260.67-16.35Q260.92-17.4 262.27-18.6 263.62-19.8 265.35-20.6 267.07-21.4 268.32-21.4L268.32-21.4Q269.67-21.4 270.97-20.4 272.27-19.4 273.27-17.75L273.27-17.75Q273.57-19.15 273.82-21.05L273.82-21.05 274.07-22.7 274.27-22.75ZM270.77-6.85L272.67-15.1Q271.72-16.95 270.5-18.05 269.27-19.15 268.12-19.15L268.12-19.15Q267.32-19.15 266.17-18.63 265.02-18.1 264.07-17.23 263.12-16.35 262.87-15.3L262.87-15.3Q262.52-13.8 261.57-8.6L261.57-8.6 260.97-5.2Q260.97-4 261.85-2.95 262.72-1.9 263.87-1.9L263.87-1.9Q264.72-1.9 266.27-2.5 267.82-3.1 269.12-4.23 270.42-5.35 270.77-6.85L270.77-6.85ZM285.77 0.35Q284.02 0.35 282.65-0.83 281.27-2 281.27-4.3L281.27-4.3Q282.02-6.7 283.87-14.95L283.87-14.95Q284.77-19 284.97-19.8L284.97-19.8Q285.62-20.9 286.77-20.9L286.77-20.9Q287.52-20.9 287.52-20.4L287.52-20.4Q287.17-19.15 286.55-16.43 285.92-13.7 285.57-12.15L285.57-12.15Q284.22-5.95 283.72-4.2L283.72-4.2Q283.72-3.05 284.4-2.43 285.07-1.8 286.17-1.8L286.17-1.8Q288.67-1.8 291.2-3.58 293.72-5.35 295.65-7.7 297.57-10.05 298.52-11.75L298.52-11.75Q298.82-11.65 298.92-11.43 299.02-11.2 299.02-10.65L299.02-10.65Q299.02-9.9 298.52-9.1L298.52-9.1Q295.82-4.85 292.47-2.25 289.12 0.35 285.77 0.35L285.77 0.35ZM288.07-27.15Q287.37-27.15 286.97-27.63 286.57-28.1 286.57-28.85L286.57-28.85Q286.57-29.85 287.22-30.68 287.87-31.5 288.87-31.5L288.87-31.5Q289.67-31.5 290.05-31 290.42-30.5 290.42-29.8L290.42-29.8Q290.42-28.8 289.75-27.98 289.07-27.15 288.07-27.15L288.07-27.15ZM320.12-12.2Q320.62-12.2 320.84-11.78 321.07-11.35 321.07-10.8L321.07-10.8Q321.07-9 319.17-6.25 317.27-3.5 314.34-1.45 311.42 0.6 308.57 0.6L308.57 0.6Q306.77 0.6 305.79-0.3 304.82-1.2 304.82-3.05L304.82-3.05Q304.82-5.6 306.22-9.98 307.62-14.35 308.77-17.25L308.77-17.25Q308.57-17.55 308.37-17.55L308.37-17.55Q308.17-17.55 307.92-17.4L307.92-17.4Q307.02-16.85 304.97-14.95 302.92-13.05 300.97-10.95 299.02-8.85 298.32-7.55L298.32-7.55Q297.52-5.4 297.32-4.83 297.12-4.25 296.92-2.95L296.92-2.95 296.47-0.7Q296.42-0.55 296.37-0.33 296.32-0.1 296.24-0.05 296.17 0 296.02 0L296.02 0Q295.57 0 294.84-0.1 294.12-0.2 294.12-0.4L294.12-0.4Q294.12-1 294.47-2.35 294.82-3.7 295.17-4.8 295.52-5.9 295.72-6.5L295.72-6.5 296.17-7.9Q297.62-12.9 298.14-15.18 298.67-17.45 299.17-20.25L299.17-20.25Q299.22-20.75 299.87-20.75L299.87-20.75Q300.32-20.75 300.89-20.53 301.47-20.3 301.57-19.9L301.57-19.9Q301.37-19 300.84-16.85 300.32-14.7 299.57-12.1L299.57-12.1Q302.47-15.35 305.59-18 308.72-20.65 309.77-20.65L309.77-20.65Q310.27-20.65 310.97-20.15 311.67-19.65 311.82-19.2L311.82-19.2Q310.22-14.9 308.77-9.83 307.32-4.75 307.32-3.15L307.32-3.15Q307.32-1.4 309.32-1.4L309.32-1.4Q312.27-1.4 315.29-4.7 318.32-8 320.12-12.2L320.12-12.2ZM339.17-11.95Q340.07-11.8 340.07-10.95L340.07-10.95Q340.07-8.95 337.49-6.28 334.92-3.6 331.42-1.68 327.92 0.25 325.57 0.25L325.57 0.25Q323.32 0.25 321.67-0.93 320.02-2.1 319.14-3.55 318.27-5 318.27-5.7L318.27-5.7Q319.07-8.55 320.02-13.6L320.02-13.6 320.57-16.4Q320.77-17.4 322.02-18.48 323.27-19.55 324.82-20.28 326.37-21 327.32-21L327.32-21Q328.07-21 329.14-20.53 330.22-20.05 331.04-19.05 331.87-18.05 331.87-16.5L331.87-16.5Q331.87-14.7 330.67-13.1 329.47-11.5 327.12-10.5 324.77-9.5 321.47-9.5L321.47-9.5 320.77-6.15Q320.77-5.7 321.29-4.65 321.82-3.6 322.99-2.75 324.17-1.9 325.97-1.9L325.97-1.9Q328.37-1.9 331.02-3.48 333.67-5.05 335.87-7.4 338.07-9.75 339.17-11.95L339.17-11.95ZM326.92-18.95Q326.32-18.95 325.37-18.45 324.42-17.95 323.64-17.2 322.87-16.45 322.72-15.8L322.72-15.8Q322.22-13.55 321.82-11.25L321.82-11.25Q325.67-11.4 327.62-12.78 329.57-14.15 329.57-15.9L329.57-15.9Q329.57-17.15 328.67-18.05 327.77-18.95 326.92-18.95L326.92-18.95ZM358.06-11.95Q358.96-11.8 358.96-10.95L358.96-10.95Q358.96-8.95 356.39-6.28 353.81-3.6 350.31-1.68 346.81 0.25 344.46 0.25L344.46 0.25Q342.21 0.25 340.56-0.93 338.91-2.1 338.04-3.55 337.16-5 337.16-5.7L337.16-5.7Q337.96-8.55 338.91-13.6L338.91-13.6 339.46-16.4Q339.66-17.4 340.91-18.48 342.16-19.55 343.71-20.28 345.26-21 346.21-21L346.21-21Q346.96-21 348.04-20.53 349.11-20.05 349.94-19.05 350.76-18.05 350.76-16.5L350.76-16.5Q350.76-14.7 349.56-13.1 348.36-11.5 346.01-10.5 343.66-9.5 340.36-9.5L340.36-9.5 339.66-6.15Q339.66-5.7 340.19-4.65 340.71-3.6 341.89-2.75 343.06-1.9 344.86-1.9L344.86-1.9Q347.26-1.9 349.91-3.48 352.56-5.05 354.76-7.4 356.96-9.75 358.06-11.95L358.06-11.95ZM345.81-18.95Q345.21-18.95 344.26-18.45 343.31-17.95 342.54-17.2 341.76-16.45 341.61-15.8L341.61-15.8Q341.11-13.55 340.71-11.25L340.71-11.25Q344.56-11.4 346.51-12.78 348.46-14.15 348.46-15.9L348.46-15.9Q348.46-17.15 347.56-18.05 346.66-18.95 345.81-18.95L345.81-18.95ZM378.56-17.85Q378.76-17.8 378.91-17.55 379.06-17.3 379.06-17L379.06-17Q379.06-15.95 378.09-14.98 377.11-14 375.54-13.4 373.96-12.8 372.36-12.8L372.36-12.8Q369.86-12.8 368.09-14.1 366.31-15.4 365.81-17.75L365.81-17.75Q363.56-17.5 361.69-14.9 359.81-12.3 359.06-9.25L359.06-9.25Q358.96-8.75 358.31-6.18 357.66-3.6 357.06-0.1L357.06-0.1Q357.01 0.05 356.94 0.13 356.86 0.2 356.61 0.2L356.61 0.2Q356.26 0.2 355.56-0.1 354.86-0.4 354.86-0.75L354.86-0.75Q354.86-1.45 355.11-2.6L355.11-2.6Q358.16-16.7 359.06-20.05L359.06-20.05Q359.16-20.5 359.29-20.65 359.41-20.8 359.71-20.8L359.71-20.8Q359.91-20.8 360.56-20.48 361.21-20.15 361.61-19.8L361.61-19.8 360.71-16.9 360.41-15.9Q361.56-17.7 363.06-18.8 364.56-19.9 366.26-19.9L366.26-19.9Q366.76-19.9 367.26-19.8 367.76-19.7 367.96-19.55L367.96-19.55Q367.96-17.1 369.24-15.93 370.51-14.75 372.81-14.75L372.81-14.75Q374.86-14.75 376.21-15.45 377.56-16.15 378.56-17.85L378.56-17.85Z" opacity="1" transform="matrix(1,0,0,1,0,0)" fill="#cf7650" class="slogan-text-1" data-fill-palette-color="secondary" id="text-1"></path></svg></g></svg></g></svg></g></svg></g><g><svg viewBox="0 0 94.31438824243588 106.61533478730097" height="106.61533478730097" width="94.31438824243588"><g><svg xmlns="http://www.w3.org/2000/svg" xmlns:xlink="http://www.w3.org/1999/xlink" version="1.1" x="0" y="0" viewBox="10.584625199999993 5.4438782 78.83074950000002 89.1122437" style="enable-background:new 0 0 100 100;" xml:space="preserve" height="106.61533478730097" width="94.31438824243588" class="icon-icon-0" data-fill-palette-color="accent" id="icon-0"><g fill="#d5a187" data-fill-palette-color="accent"><path d="M74.184 48.757c-1.416-0.865-3.049-1.297-4.707-1.332-2.417-0.051-4.743 0.956-6.529 2.585-3.563 3.249-6.416 5.503-12.948 5.503-6.535 0-9.499-2.318-12.896-5.476-1.561-1.452-3.54-2.451-5.666-2.591-1.965-0.13-3.945 0.288-5.622 1.311-5.044 3.08-15.232 12.56-15.231 38.881 0 1.038 0.016 2.039 0.045 3.011 0.065 2.181 1.866 3.907 4.048 3.907h13.589c-0.327-0.146-0.541-0.484-0.541-1.298 0-1.412 0.632-1.412 1.412-1.412 0 0-1.474-0.642-1.551-1.438l-2.383-24.714c-0.095-0.981 0.631-1.781 1.622-1.781h46.626c0.99 0 1.716 0.8 1.622 1.781l-2.383 24.714c-0.077 0.796-1.551 1.438-1.551 1.438 0.78 0 1.412 0.114 1.412 1.412 0 0.798-0.24 1.146-0.605 1.298h13.375c2.182 0 3.983-1.726 4.048-3.906 0.029-0.972 0.045-1.974 0.045-3.012C89.415 61.317 79.228 51.837 74.184 48.757z" fill="#d5a187" data-fill-palette-color="accent"></path><path d="M50.139 76.072c-1.696 0-3.055 1.304-3.036 2.895 0.019 1.57 1.379 2.827 3.036 2.827 1.657 0 3.016-1.258 3.036-2.827C53.195 77.377 51.836 76.072 50.139 76.072z" fill="#d5a187" data-fill-palette-color="accent"></path><path d="M36.067 40.263c0.677 0.709 1.408 1.363 2.185 1.962 3.189 2.644 7.282 4.234 11.748 4.235 4.466 0 8.559-1.591 11.747-4.234 0.828-0.639 1.601-1.341 2.315-2.104 7.42 3.22 14.68 1.019 14.679 1.019s-5.159-2.126-6.981-14.748C69.729 12.321 60.454 5.444 50.227 5.444c-10.227 0-19.502 6.877-21.533 20.949-1.822 12.623-6.981 14.749-6.981 14.748S28.761 43.281 36.067 40.263z" fill="#d5a187" data-fill-palette-color="accent"></path></g></svg></g></svg></g></svg></g></svg></g><g><path d="M0 123.6c0-68.262 55.338-123.6 123.6-123.6 54.162 0 100.187 34.837 116.89 83.327l-1.066 0c-16.661-47.923-62.226-82.319-115.824-82.319-67.706 0-122.592 54.886-122.592 122.592 0 67.706 54.886 122.592 122.592 122.592 53.598 0 99.162-34.396 115.824-82.319l1.066 0c-16.703 48.489-62.728 83.327-116.89 83.327-68.262 0-123.6-55.338-123.6-123.6z" fill="#cf7650" stroke="transparent" data-fill-palette-color="tertiary"></path></g></svg></g><defs></defs></svg><rect width="395.52" height="247.2" fill="none" stroke="none" visibility="hidden"></rect></g></svg></g></svg>